0
SECTION
2
HEADER
9
$INSUNITS
70

0
ENDSEC
0
SECTION
2
TABLES
0
TABLE
2
LTYPE
0
LTYPE
72
65
70
64
2
CONTINUOUS
3
______
73
0
40
0
0
ENDTAB
0
TABLE
2
LAYER
0
LAYER
2
white
70
0
62
7
6
CONTINUOUS
0
LAYER
2
red
70
0
62
1
6
CONTINUOUS
0
ENDTAB
0
ENDSEC
0
SECTION
2
ENTITIES
0
POLYLINE
8
white
66
1
70
1
0
VERTEX
8
white
10
-40.349
20
-14.2875
0
VERTEX
8
white
10
-40.0844
20
-14.5521
0
VERTEX
8
white
10
-40.349
20
-14.2875
0
VERTEX
8
white
10
-43.524
20
-14.0229
0
VERTEX
8
white
10
-40.349
20
-14.2875
0
VERTEX
8
white
10
-40.0844
20
-14.5521
0
VERTEX
8
white
10
-34.5281
20
-14.5521
0
VERTEX
8
white
10
-34.2635
20
-14.2875
0
VERTEX
8
white
10
-30.2948
20
-14.0229
0
VERTEX
8
white
10
-24.2094
20
-12.7
0
VERTEX
8
white
10
-14.1552
20
-9.7896
0
VERTEX
8
white
10
-9.1281
20
-8.7313
0
VERTEX
8
white
10
8.8635
20
-3.7042
0
VERTEX
8
white
10
14.949
20
-2.3813
0
VERTEX
8
white
10
17.8594
20
-1.3229
0
VERTEX
8
white
10
23.9448
20
0
0
VERTEX
8
white
10
31.8823
20
2.3813
0
VERTEX
8
white
10
36.9094
20
3.4396
0
VERTEX
8
white
10
54.901
20
8.4667
0
VERTEX
8
white
10
60.9865
20
9.7896
0
VERTEX
8
white
10
63.8969
20
10.8479
0
VERTEX
8
white
10
69.9823
20
12.1708
0
VERTEX
8
white
10
77.9198
20
14.5521
0
VERTEX
8
white
10
102.7906
20
20.9021
0
VERTEX
8
white
10
102.7906
20
20.6375
0
VERTEX
8
white
10
-31.3531
20
-35.9833
0
VERTEX
8
white
10
-39.5552
20
-38.6292
0
VERTEX
8
white
10
-46.9635
20
-40.2167
0
VERTEX
8
white
10
-39.5552
20
-38.6292
0
VERTEX
8
white
10
-31.3531
20
-35.9833
0
VERTEX
8
white
10
102.7906
20
20.6375
0
VERTEX
8
white
10
102.7906
20
20.9021
0
VERTEX
8
white
10
77.9198
20
14.5521
0
VERTEX
8
white
10
69.9823
20
12.1708
0
VERTEX
8
white
10
63.8969
20
10.8479
0
VERTEX
8
white
10
60.9865
20
9.7896
0
VERTEX
8
white
10
54.901
20
8.4667
0
VERTEX
8
white
10
36.9094
20
3.4396
0
VERTEX
8
white
10
31.8823
20
2.3813
0
VERTEX
8
white
10
23.9448
20
0
0
VERTEX
8
white
10
17.8594
20
-1.3229
0
VERTEX
8
white
10
14.949
20
-2.3813
0
VERTEX
8
white
10
8.8635
20
-3.7042
0
VERTEX
8
white
10
-9.1281
20
-8.7313
0
VERTEX
8
white
10
-14.1552
20
-9.7896
0
VERTEX
8
white
10
-24.2094
20
-12.7
0
VERTEX
8
white
10
-30.2948
20
-14.0229
0
VERTEX
8
white
10
-34.2635
20
-14.2875
0
VERTEX
8
white
10
-34.5281
20
-14.5521
0
VERTEX
8
white
10
-40.0844
20
-14.5521
0
SEQEND
0
POLYLINE
8
white
66
1
70
1
0
VERTEX
8
white
10
-43.524
20
-14.0229
0
VERTEX
8
white
10
-40.349
20
-14.2875
0
VERTEX
8
white
10
-40.0844
20
-14.5521
0
VERTEX
8
white
10
-34.5281
20
-14.5521
0
VERTEX
8
white
10
-34.2635
20
-14.2875
0
VERTEX
8
white
10
-30.2948
20
-14.0229
0
VERTEX
8
white
10
-24.2094
20
-12.7
0
VERTEX
8
white
10
-14.1552
20
-9.7896
0
VERTEX
8
white
10
-9.1281
20
-8.7313
0
VERTEX
8
white
10
8.8635
20
-3.7042
0
VERTEX
8
white
10
14.949
20
-2.3813
0
VERTEX
8
white
10
17.8594
20
-1.3229
0
VERTEX
8
white
10
23.9448
20
0
0
VERTEX
8
white
10
31.8823
20
2.3813
0
VERTEX
8
white
10
36.9094
20
3.4396
0
VERTEX
8
white
10
54.901
20
8.4667
0
VERTEX
8
white
10
60.9865
20
9.7896
0
VERTEX
8
white
10
63.8969
20
10.8479
0
VERTEX
8
white
10
69.9823
20
12.1708
0
VERTEX
8
white
10
77.9198
20
14.5521
0
VERTEX
8
white
10
102.7906
20
20.9021
0
VERTEX
8
white
10
102.7906
20
20.6375
0
VERTEX
8
white
10
-31.3531
20
-35.9833
0
VERTEX
8
white
10
-39.5552
20
-38.6292
0
VERTEX
8
white
10
-46.9635
20
-40.2167
0
VERTEX
8
white
10
-39.5552
20
-38.6292
0
VERTEX
8
white
10
-31.3531
20
-35.9833
0
VERTEX
8
white
10
102.7906
20
20.6375
0
VERTEX
8
white
10
102.7906
20
20.9021
0
VERTEX
8
white
10
77.9198
20
14.5521
0
VERTEX
8
white
10
69.9823
20
12.1708
0
VERTEX
8
white
10
63.8969
20
10.8479
0
VERTEX
8
white
10
60.9865
20
9.7896
0
VERTEX
8
white
10
54.901
20
8.4667
0
VERTEX
8
white
10
36.9094
20
3.4396
0
VERTEX
8
white
10
31.8823
20
2.3813
0
VERTEX
8
white
10
23.9448
20
0
0
VERTEX
8
white
10
17.8594
20
-1.3229
0
VERTEX
8
white
10
14.949
20
-2.3813
0
VERTEX
8
white
10
8.8635
20
-3.7042
0
VERTEX
8
white
10
-9.1281
20
-8.7313
0
VERTEX
8
white
10
-14.1552
20
-9.7896
0
VERTEX
8
white
10
-24.2094
20
-12.7
0
VERTEX
8
white
10
-30.2948
20
-14.0229
0
VERTEX
8
white
10
-34.2635
20
-14.2875
0
VERTEX
8
white
10
-34.5281
20
-14.5521
0
VERTEX
8
white
10
-40.0844
20
-14.5521
0
VERTEX
8
white
10
-40.349
20
-14.2875
0
SEQEND
0
POLYLINE
8
white
66
1
70
0
0
VERTEX
8
white
10
-40.349
20
-14.2875
0
VERTEX
8
white
10
-40.0844
20
-14.5521
0
VERTEX
8
white
10
-34.5281
20
-14.5521
0
VERTEX
8
white
10
-34.2635
20
-14.2875
0
VERTEX
8
white
10
-30.2948
20
-14.0229
0
VERTEX
8
white
10
-24.2094
20
-12.7
0
VERTEX
8
white
10
-14.1552
20
-9.7896
0
VERTEX
8
white
10
-9.1281
20
-8.7313
0
VERTEX
8
white
10
8.8635
20
-3.7042
0
VERTEX
8
white
10
14.949
20
-2.3813
0
VERTEX
8
white
10
17.8594
20
-1.3229
0
VERTEX
8
white
10
23.9448
20
0
0
VERTEX
8
white
10
31.8823
20
2.3813
0
VERTEX
8
white
10
36.9094
20
3.4396
0
VERTEX
8
white
10
54.901
20
8.4667
0
VERTEX
8
white
10
60.9865
20
9.7896
0
VERTEX
8
white
10
63.8969
20
10.8479
0
VERTEX
8
white
10
69.9823
20
12.1708
0
VERTEX
8
white
10
77.9198
20
14.5521
0
VERTEX
8
white
10
102.7906
20
20.9021
0
VERTEX
8
white
10
102.7906
20
20.6375
0
VERTEX
8
white
10
-31.3531
20
-35.9833
0
VERTEX
8
white
10
-39.5552
20
-38.6292
0
VERTEX
8
white
10
-46.9635
20
-40.2167
0
VERTEX
8
white
10
-39.5552
20
-38.6292
0
VERTEX
8
white
10
-31.3531
20
-35.9833
0
VERTEX
8
white
10
102.7906
20
20.6375
0
VERTEX
8
white
10
102.7906
20
20.9021
0
VERTEX
8
white
10
77.9198
20
14.5521
0
VERTEX
8
white
10
69.9823
20
12.1708
0
VERTEX
8
white
10
63.8969
20
10.8479
0
VERTEX
8
white
10
60.9865
20
9.7896
0
VERTEX
8
white
10
54.901
20
8.4667
0
VERTEX
8
white
10
36.9094
20
3.4396
0
VERTEX
8
white
10
31.8823
20
2.3813
0
VERTEX
8
white
10
23.9448
20
0
0
VERTEX
8
white
10
17.8594
20
-1.3229
0
VERTEX
8
white
10
14.949
20
-2.3813
0
VERTEX
8
white
10
8.8635
20
-3.7042
0
VERTEX
8
white
10
-9.1281
20
-8.7313
0
VERTEX
8
white
10
-14.1552
20
-9.7896
0
VERTEX
8
white
10
-24.2094
20
-12.7
0
VERTEX
8
white
10
-30.2948
20
-14.0229
0
VERTEX
8
white
10
-34.2635
20
-14.2875
0
VERTEX
8
white
10
-34.5281
20
-14.5521
0
VERTEX
8
white
10
-40.0844
20
-14.5521
0
SEQEND
0
POLYLINE
8
white
66
1
70
0
0
VERTEX
8
white
10
-40.0844
20
-14.5521
0
VERTEX
8
white
10
-34.5281
20
-14.5521
0
VERTEX
8
white
10
-34.2635
20
-14.2875
0
VERTEX
8
white
10
-30.2948
20
-14.0229
0
VERTEX
8
white
10
-24.2094
20
-12.7
0
VERTEX
8
white
10
-14.1552
20
-9.7896
0
VERTEX
8
white
10
-9.1281
20
-8.7313
0
VERTEX
8
white
10
8.8635
20
-3.7042
0
VERTEX
8
white
10
14.949
20
-2.3813
0
VERTEX
8
white
10
17.8594
20
-1.3229
0
VERTEX
8
white
10
23.9448
20
0
0
VERTEX
8
white
10
31.8823
20
2.3813
0
VERTEX
8
white
10
36.9094
20
3.4396
0
VERTEX
8
white
10
54.901
20
8.4667
0
VERTEX
8
white
10
60.9865
20
9.7896
0
VERTEX
8
white
10
63.8969
20
10.8479
0
VERTEX
8
white
10
69.9823
20
12.1708
0
VERTEX
8
white
10
77.9198
20
14.5521
0
VERTEX
8
white
10
102.7906
20
20.9021
0
VERTEX
8
white
10
102.7906
20
20.6375
0
VERTEX
8
white
10
-31.3531
20
-35.9833
0
VERTEX
8
white
10
-39.5552
20
-38.6292
0
VERTEX
8
white
10
-46.9635
20
-40.2167
0
SEQEND
0
POLYLINE
8
white
66
1
70
1
0
VERTEX
8
white
10
85.1958
20
13.8906
0
VERTEX
8
white
10
57.5469
20
1.5875
0
VERTEX
8
white
10
50.1385
20
-1.3229
0
VERTEX
8
white
10
20.2406
20
-14.5521
0
VERTEX
8
white
10
-28.1781
20
-35.1896
0
VERTEX
8
white
10
-34.2635
20
-37.3063
0
VERTEX
8
white
10
-39.026
20
-38.3646
0
VERTEX
8
white
10
-34.2635
20
-37.3063
0
VERTEX
8
white
10
-28.1781
20
-35.1896
0
VERTEX
8
white
10
20.2406
20
-14.5521
0
VERTEX
8
white
10
50.1385
20
-1.3229
0
VERTEX
8
white
10
57.5469
20
1.5875
0
SEQEND
0
POLYLINE
8
white
66
1
70
1
0
VERTEX
8
white
10
74.6125
20
24.474
0
VERTEX
8
white
10
27.3844
20
3.7042
0
VERTEX
8
white
10
-38.7615
20
-24.6063
0
VERTEX
8
white
10
-44.8469
20
-26.7229
0
VERTEX
8
white
10
-49.6094
20
-27.7813
0
VERTEX
8
white
10
-44.8469
20
-26.7229
0
VERTEX
8
white
10
-38.7615
20
-24.6063
0
VERTEX
8
white
10
9.6573
20
-3.9688
0
VERTEX
8
white
10
39.5552
20
9.2604
0
VERTEX
8
white
10
46.9635
20
12.1708
0
SEQEND
0
POLYLINE
8
white
66
1
70
0
0
VERTEX
8
white
10
57.5469
20
1.5875
0
VERTEX
8
white
10
50.1385
20
-1.3229
0
VERTEX
8
white
10
57.5469
20
1.5875
0
VERTEX
8
white
10
85.1958
20
13.8906
0
VERTEX
8
white
10
57.5469
20
1.5875
0
VERTEX
8
white
10
50.1385
20
-1.3229
0
VERTEX
8
white
10
20.2406
20
-14.5521
0
VERTEX
8
white
10
-28.1781
20
-35.1896
0
VERTEX
8
white
10
-34.2635
20
-37.3063
0
VERTEX
8
white
10
-28.1781
20
-35.1896
0
VERTEX
8
white
10
37.9677
20
-6.8792
0
SEQEND
0
POLYLINE
8
white
66
1
70
1
0
VERTEX
8
white
10
-38.7615
20
-24.6063
0
VERTEX
8
white
10
9.6573
20
-3.9688
0
VERTEX
8
white
10
39.5552
20
9.2604
0
VERTEX
8
white
10
46.9635
20
12.1708
0
VERTEX
8
white
10
74.6125
20
24.474
0
VERTEX
8
white
10
46.9635
20
12.1708
0
VERTEX
8
white
10
39.5552
20
9.2604
0
VERTEX
8
white
10
9.6573
20
-3.9688
0
SEQEND
0
POLYLINE
8
white
66
1
70
1
0
VERTEX
8
white
10
50.1385
20
-1.3229
0
VERTEX
8
white
10
57.5469
20
1.5875
0
VERTEX
8
white
10
85.1958
20
13.8906
0
VERTEX
8
white
10
37.9677
20
-6.8792
0
VERTEX
8
white
10
-28.1781
20
-35.1896
0
VERTEX
8
white
10
20.2406
20
-14.5521
0
SEQEND
0
POLYLINE
8
white
66
1
70
1
0
VERTEX
8
white
10
-39.026
20
-5.5563
0
VERTEX
8
white
10
-34.2635
20
-4.4979
0
VERTEX
8
white
10
-12.8323
20
1.5875
0
VERTEX
8
white
10
-9.9219
20
2.1167
0
VERTEX
8
white
10
-7.0115
20
3.175
0
VERTEX
8
white
10
-3.0427
20
3.9688
0
VERTEX
8
white
10
-0.1323
20
5.0271
0
VERTEX
8
white
10
3.8365
20
5.8208
0
VERTEX
8
white
10
8.599
20
7.4083
0
VERTEX
8
white
10
12.5677
20
8.2021
0
VERTEX
8
white
10
30.0302
20
13.2292
0
VERTEX
8
white
10
40.8781
20
15.875
0
VERTEX
8
white
10
52.5198
20
19.3146
0
VERTEX
8
white
10
56.4886
20
20.1083
0
VERTEX
8
white
10
59.399
20
21.1667
0
VERTEX
8
white
10
63.3677
20
21.9604
0
VERTEX
8
white
10
73.1573
20
24.8708
0
VERTEX
8
white
10
72.099
20
24.3417
0
VERTEX
8
white
10
68.1302
20
23.5479
0
VERTEX
8
white
10
56.4886
20
20.1083
0
VERTEX
8
white
10
52.5198
20
19.3146
0
VERTEX
8
white
10
40.8781
20
15.875
0
VERTEX
8
white
10
30.0302
20
13.2292
0
VERTEX
8
white
10
18.3885
20
9.7896
0
VERTEX
8
white
10
15.4781
20
9.2604
0
VERTEX
8
white
10
2.7781
20
5.5563
0
VERTEX
8
white
10
-0.1323
20
5.0271
0
VERTEX
8
white
10
-9.9219
20
2.1167
0
VERTEX
8
white
10
-13.8906
20
1.3229
0
VERTEX
8
white
10
-16.801
20
0.2646
0
SEQEND
0
POLYLINE
8
white
66
1
70
1
0
VERTEX
8
white
10
-28.4427
20
-16.1396
0
VERTEX
8
white
10
-6.2177
20
-10.3188
0
VERTEX
8
white
10
-3.3073
20
-9.2604
0
VERTEX
8
white
10
0.6615
20
-8.4667
0
VERTEX
8
white
10
10.451
20
-5.5563
0
VERTEX
8
white
10
13.3615
20
-5.0271
0
VERTEX
8
white
10
26.0615
20
-1.3229
0
VERTEX
8
white
10
28.9719
20
-0.7938
0
VERTEX
8
white
10
40.6135
20
2.6458
0
VERTEX
8
white
10
51.4615
20
5.2917
0
VERTEX
8
white
10
63.1031
20
8.7313
0
VERTEX
8
white
10
67.0719
20
9.525
0
VERTEX
8
white
10
78.7136
20
12.9646
0
VERTEX
8
white
10
82.6823
20
13.7583
0
VERTEX
8
white
10
83.7406
20
14.2875
0
VERTEX
8
white
10
82.6823
20
13.7583
0
VERTEX
8
white
10
78.7136
20
12.9646
0
VERTEX
8
white
10
67.0719
20
9.525
0
VERTEX
8
white
10
63.1031
20
8.7313
0
VERTEX
8
white
10
51.4615
20
5.2917
0
VERTEX
8
white
10
40.6135
20
2.6458
0
VERTEX
8
white
10
28.9719
20
-0.7938
0
VERTEX
8
white
10
26.0615
20
-1.3229
0
VERTEX
8
white
10
13.3615
20
-5.0271
0
VERTEX
8
white
10
10.451
20
-5.5563
0
VERTEX
8
white
10
0.6615
20
-8.4667
0
VERTEX
8
white
10
-3.3073
20
-9.2604
0
VERTEX
8
white
10
-6.2177
20
-10.3188
0
SEQEND
0
POLYLINE
8
white
66
1
70
0
0
VERTEX
8
white
10
57.5469
20
1.5875
0
VERTEX
8
white
10
50.1385
20
-1.3229
0
VERTEX
8
white
10
20.2406
20
-14.5521
0
VERTEX
8
white
10
-28.1781
20
-35.1896
0
VERTEX
8
white
10
-34.2635
20
-37.3063
0
VERTEX
8
white
10
-28.1781
20
-35.1896
0
VERTEX
8
white
10
20.2406
20
-14.5521
0
VERTEX
8
white
10
50.1385
20
-1.3229
0
SEQEND
0
POLYLINE
8
white
66
1
70
0
0
VERTEX
8
white
10
-40.6135
20
-38.6292
42
-0.081
0
VERTEX
8
white
10
-40.4721
20
-38.4512
42
-0.1267
0
VERTEX
8
white
10
-40.123
20
-38.2746
42
-0.0592
0
VERTEX
8
white
10
-39.8069
20
-38.2404
42
-0.0285
0
VERTEX
8
white
10
-39.5649
20
-38.2551
42
-0.0224
0
VERTEX
8
white
10
-39.2953
20
-38.2991
42
-0.0164
0
VERTEX
8
white
10
-39.026
20
-38.3646
42
0.016
0
VERTEX
8
white
10
-39.3526
20
-38.2861
42
0.022
0
VERTEX
8
white
10
-39.677
20
-38.2335
42
0.0285
0
VERTEX
8
white
10
-39.9686
20
-38.2158
42
0.0559
0
VERTEX
8
white
10
-40.3249
20
-38.2522
42
0.1098
0
VERTEX
8
white
10
-40.6905
20
-38.4171
42
0.0941
0
VERTEX
8
white
10
-40.8781
20
-38.6292
0
VERTEX
8
white
10
-47.4927
20
-38.6292
0
VERTEX
8
white
10
-53.049
20
-37.0417
0
VERTEX
8
white
10
-59.0021
20
-33.0729
0
VERTEX
8
white
10
-60.5896
20
-30.824
0
VERTEX
8
white
10
-61.9125
20
-27.649
0
VERTEX
8
white
10
-62.1771
20
-26.5906
0
VERTEX
8
white
10
-62.1771
20
-21.0344
0
VERTEX
8
white
10
-60.8542
20
-15.4781
0
VERTEX
8
white
10
-56.8854
20
-6.7469
0
VERTEX
8
white
10
-50.8
20
2.7781
0
VERTEX
8
white
10
-44.1854
20
11.3771
0
VERTEX
8
white
10
-43.6563
20
11.2448
0
VERTEX
8
white
10
-44.9792
20
8.8635
0
VERTEX
8
white
10
-46.5667
20
4.101
0
VERTEX
8
white
10
-47.3604
20
-0.3969
0
VERTEX
8
white
10
-47.3604
20
-3.5719
0
VERTEX
8
white
10
-46.8313
20
-6.4823
0
VERTEX
8
white
10
-45.2438
20
-9.9219
0
VERTEX
8
white
10
-42.4656
20
-12.9646
0
VERTEX
8
white
10
-45.2438
20
-9.9219
0
VERTEX
8
white
10
-46.8313
20
-6.4823
0
VERTEX
8
white
10
-47.3604
20
-3.5719
0
VERTEX
8
white
10
-47.3604
20
-0.3969
0
VERTEX
8
white
10
-46.5667
20
4.101
0
VERTEX
8
white
10
-44.9792
20
8.8635
0
VERTEX
8
white
10
-43.6563
20
11.2448
0
VERTEX
8
white
10
-44.1854
20
11.3771
0
VERTEX
8
white
10
-50.8
20
2.7781
0
VERTEX
8
white
10
-56.8854
20
-6.7469
0
VERTEX
8
white
10
-60.8542
20
-15.4781
0
VERTEX
8
white
10
-62.1771
20
-21.0344
0
VERTEX
8
white
10
-62.1771
20
-26.5906
0
VERTEX
8
white
10
-62.1771
20
-21.0344
0
VERTEX
8
white
10
-60.8542
20
-15.4781
0
VERTEX
8
white
10
-56.8854
20
-6.7469
0
SEQEND
0
POLYLINE
8
white
66
1
70
0
0
VERTEX
8
white
10
-13.8906
20
1.3229
0
VERTEX
8
white
10
-9.9219
20
2.1167
0
VERTEX
8
white
10
-0.1323
20
5.0271
0
VERTEX
8
white
10
2.7781
20
5.5563
0
VERTEX
8
white
10
15.4781
20
9.2604
0
VERTEX
8
white
10
18.3885
20
9.7896
0
VERTEX
8
white
10
30.0302
20
13.2292
0
VERTEX
8
white
10
33.999
20
14.0229
0
VERTEX
8
white
10
36.9094
20
15.0813
0
VERTEX
8
white
10
40.8781
20
15.875
0
VERTEX
8
white
10
52.5198
20
19.3146
0
VERTEX
8
white
10
56.4886
20
20.1083
0
VERTEX
8
white
10
68.1302
20
23.5479
0
VERTEX
8
white
10
72.099
20
24.3417
0
VERTEX
8
white
10
73.1573
20
24.8708
0
VERTEX
8
white
10
72.099
20
24.3417
0
VERTEX
8
white
10
68.1302
20
23.5479
0
VERTEX
8
white
10
56.4886
20
20.1083
0
VERTEX
8
white
10
52.5198
20
19.3146
0
VERTEX
8
white
10
40.8781
20
15.875
0
VERTEX
8
white
10
36.9094
20
15.0813
0
VERTEX
8
white
10
33.999
20
14.0229
0
VERTEX
8
white
10
30.0302
20
13.2292
0
VERTEX
8
white
10
18.3885
20
9.7896
0
VERTEX
8
white
10
14.4198
20
8.9958
0
VERTEX
8
white
10
2.7781
20
5.5563
0
VERTEX
8
white
10
-0.1323
20
5.0271
0
VERTEX
8
white
10
-9.9219
20
2.1167
0
SEQEND
0
POLYLINE
8
white
66
1
70
1
0
VERTEX
8
white
10
-62.1771
20
-26.5906
0
VERTEX
8
white
10
-62.1771
20
-21.0344
0
VERTEX
8
white
10
-60.8542
20
-15.4781
0
VERTEX
8
white
10
-56.8854
20
-6.7469
0
VERTEX
8
white
10
-50.8
20
2.7781
0
VERTEX
8
white
10
-44.1854
20
11.3771
0
VERTEX
8
white
10
-43.6563
20
11.2448
0
VERTEX
8
white
10
-44.9792
20
8.8635
0
VERTEX
8
white
10
-46.5667
20
4.101
0
VERTEX
8
white
10
-47.3604
20
-0.3969
0
VERTEX
8
white
10
-47.3604
20
-3.5719
0
VERTEX
8
white
10
-46.8313
20
-6.4823
0
VERTEX
8
white
10
-45.2438
20
-9.9219
0
VERTEX
8
white
10
-42.4656
20
-12.9646
0
VERTEX
8
white
10
-45.2438
20
-9.9219
0
VERTEX
8
white
10
-46.8313
20
-6.4823
0
VERTEX
8
white
10
-47.3604
20
-3.5719
0
VERTEX
8
white
10
-47.3604
20
-0.3969
0
VERTEX
8
white
10
-46.5667
20
4.101
0
VERTEX
8
white
10
-44.9792
20
8.8635
0
VERTEX
8
white
10
-43.6563
20
11.2448
0
VERTEX
8
white
10
-44.1854
20
11.3771
0
VERTEX
8
white
10
-50.8
20
2.7781
0
VERTEX
8
white
10
-56.8854
20
-6.7469
0
VERTEX
8
white
10
-60.8542
20
-15.4781
0
VERTEX
8
white
10
-62.1771
20
-21.0344
0
SEQEND
0
POLYLINE
8
white
66
1
70
1
0
VERTEX
8
white
10
-51.1969
20
-28.0458
0
VERTEX
8
white
10
-58.0761
20
-28.0458
0
VERTEX
8
white
10
-63.6323
20
-26.4583
0
VERTEX
8
white
10
-69.5854
20
-22.4896
0
VERTEX
8
white
10
-71.1729
20
-20.2406
0
VERTEX
8
white
10
-72.4958
20
-17.0656
0
VERTEX
8
white
10
-72.7604
20
-16.0073
0
VERTEX
8
white
10
-72.7604
20
-10.451
0
VERTEX
8
white
10
-71.4375
20
-4.8948
0
VERTEX
8
white
10
-67.4688
20
3.8365
0
VERTEX
8
white
10
-71.4375
20
-4.8948
0
VERTEX
8
white
10
-72.7604
20
-10.451
0
VERTEX
8
white
10
-72.7604
20
-16.0073
0
VERTEX
8
white
10
-72.4958
20
-17.0656
0
VERTEX
8
white
10
-71.1729
20
-20.2406
0
VERTEX
8
white
10
-69.5854
20
-22.4896
0
VERTEX
8
white
10
-63.6323
20
-26.4583
0
VERTEX
8
white
10
-58.0761
20
-28.0458
0
VERTEX
8
white
10
-51.1969
20
-28.0458
0
VERTEX
8
white
10
-58.0761
20
-28.0458
0
VERTEX
8
white
10
-51.4615
20
-28.0458
42
-0.0941
0
VERTEX
8
white
10
-51.2738
20
-27.8338
42
-0.1098
0
VERTEX
8
white
10
-50.9083
20
-27.6689
42
-0.0559
0
VERTEX
8
white
10
-50.552
20
-27.6324
42
-0.0285
0
VERTEX
8
white
10
-50.2603
20
-27.6501
42
-0.022
0
VERTEX
8
white
10
-49.9359
20
-27.7028
42
-0.016
0
VERTEX
8
white
10
-49.6094
20
-27.7813
42
0.0149
0
VERTEX
8
white
10
-49.8779
20
-27.7222
42
0.0204
0
VERTEX
8
white
10
-50.1466
20
-27.6824
42
0.0259
0
VERTEX
8
white
10
-50.3872
20
-27.6692
42
0.0529
0
VERTEX
8
white
10
-50.6955
20
-27.699
42
0.1009
0
VERTEX
8
white
10
-51.0016
20
-27.8265
42
0.1168
0
VERTEX
8
white
10
-51.1969
20
-28.0458
42
-0.0963
0
VERTEX
8
white
10
-51.0243
20
-27.8498
42
-0.1089
0
VERTEX
8
white
10
-50.6977
20
-27.7024
42
-0.0563
0
VERTEX
8
white
10
-50.3751
20
-27.6692
42
-0.0237
0
VERTEX
8
white
10
-50.1634
20
-27.6798
42
-0.0216
0
VERTEX
8
white
10
-49.8979
20
-27.7175
42
-0.0171
0
VERTEX
8
white
10
-49.6094
20
-27.7813
42
0.0164
0
VERTEX
8
white
10
-49.8786
20
-27.7158
42
0.0224
0
VERTEX
8
white
10
-50.1482
20
-27.6717
42
0.0285
0
VERTEX
8
white
10
-50.3902
20
-27.657
42
0.0592
0
VERTEX
8
white
10
-50.7063
20
-27.6913
42
0.1267
0
VERTEX
8
white
10
-51.0555
20
-27.8678
42
0.081
0
SEQEND
0
POLYLINE
8
white
66
1
70
0
0
VERTEX
8
white
10
-6.2177
20
-10.3188
0
VERTEX
8
white
10
-3.3073
20
-9.2604
0
VERTEX
8
white
10
-6.2177
20
-10.3188
0
VERTEX
8
white
10
-28.4427
20
-16.1396
0
VERTEX
8
white
10
-6.2177
20
-10.3188
0
VERTEX
8
white
10
-3.3073
20
-9.2604
0
VERTEX
8
white
10
0.6615
20
-8.4667
0
VERTEX
8
white
10
10.451
20
-5.5563
0
VERTEX
8
white
10
0.6615
20
-8.4667
0
VERTEX
8
white
10
-2.249
20
-8.9958
0
SEQEND
0
POLYLINE
8
white
66
1
70
0
0
VERTEX
8
white
10
13.3615
20
-5.0271
0
VERTEX
8
white
10
25.0031
20
-1.5875
0
VERTEX
8
white
10
28.9719
20
-0.7938
0
VERTEX
8
white
10
40.6135
20
2.6458
0
VERTEX
8
white
10
51.4615
20
5.2917
0
VERTEX
8
white
10
40.6135
20
2.6458
0
VERTEX
8
white
10
23.151
20
-2.3813
0
VERTEX
8
white
10
19.1823
20
-3.175
0
VERTEX
8
white
10
14.4198
20
-4.7625
0
VERTEX
8
white
10
10.451
20
-5.5563
0
SEQEND
0
POLYLINE
8
white
66
1
70
0
0
VERTEX
8
white
10
9.6573
20
-3.9688
0
VERTEX
8
white
10
-38.7615
20
-24.6063
0
VERTEX
8
white
10
-44.8469
20
-26.7229
0
VERTEX
8
white
10
-49.6094
20
-27.7813
0
VERTEX
8
white
10
-44.8469
20
-26.7229
0
VERTEX
8
white
10
-38.7615
20
-24.6063
0
SEQEND
0
POLYLINE
8
white
66
1
70
1
0
VERTEX
8
white
10
28.9719
20
-0.7938
0
VERTEX
8
white
10
40.6135
20
2.6458
0
VERTEX
8
white
10
51.4615
20
5.2917
0
VERTEX
8
white
10
63.1031
20
8.7313
0
VERTEX
8
white
10
51.4615
20
5.2917
0
VERTEX
8
white
10
40.6135
20
2.6458
0
SEQEND
0
POLYLINE
8
white
66
1
70
1
0
VERTEX
8
white
10
57.5469
20
1.5875
0
VERTEX
8
white
10
85.1958
20
13.8906
0
SEQEND
0
POLYLINE
8
white
66
1
70
1
0
VERTEX
8
white
10
-9.9219
20
2.1167
0
VERTEX
8
white
10
-13.8906
20
1.3229
0
VERTEX
8
white
10
-16.801
20
0.2646
0
VERTEX
8
white
10
-39.026
20
-5.5563
0
VERTEX
8
white
10
-16.801
20
0.2646
0
VERTEX
8
white
10
-13.8906
20
1.3229
0
SEQEND
0
POLYLINE
8
white
66
1
70
1
0
VERTEX
8
white
10
-3.3073
20
-9.2604
0
VERTEX
8
white
10
-6.2177
20
-10.3188
0
VERTEX
8
white
10
-28.4427
20
-16.1396
0
VERTEX
8
white
10
-23.6802
20
-15.0813
0
VERTEX
8
white
10
-2.249
20
-8.9958
0
VERTEX
8
white
10
0.6615
20
-8.4667
0
SEQEND
0
POLYLINE
8
white
66
1
70
1
0
VERTEX
8
white
10
51.4615
20
5.2917
0
VERTEX
8
white
10
63.1031
20
8.7313
0
VERTEX
8
white
10
67.0719
20
9.525
0
VERTEX
8
white
10
78.7136
20
12.9646
0
VERTEX
8
white
10
67.0719
20
9.525
0
VERTEX
8
white
10
63.1031
20
8.7313
0
SEQEND
0
POLYLINE
8
white
66
1
70
1
0
VERTEX
8
white
10
40.6135
20
2.6458
0
VERTEX
8
white
10
44.5823
20
3.4396
0
VERTEX
8
white
10
47.4927
20
4.4979
0
VERTEX
8
white
10
51.4615
20
5.2917
0
VERTEX
8
white
10
63.1031
20
8.7313
0
VERTEX
8
white
10
67.0719
20
9.525
0
VERTEX
8
white
10
63.1031
20
8.7313
0
VERTEX
8
white
10
51.4615
20
5.2917
0
VERTEX
8
white
10
47.4927
20
4.4979
0
VERTEX
8
white
10
44.5823
20
3.4396
0
SEQEND
0
POLYLINE
8
white
66
1
70
1
0
VERTEX
8
white
10
-49.0802
20
21.4313
42
0.0428
0
VERTEX
8
white
10
-65.8813
20
0.926
42
-0.0428
0
SEQEND
0
POLYLINE
8
white
66
1
70
1
0
VERTEX
8
white
10
-65.8813
20
0.926
42
-0.0428
0
VERTEX
8
white
10
-49.0802
20
21.4313
42
0.0428
0
SEQEND
0
POLYLINE
8
white
66
1
70
1
0
VERTEX
8
white
10
0.6615
20
-8.4667
0
VERTEX
8
white
10
10.451
20
-5.5563
0
VERTEX
8
white
10
13.3615
20
-5.0271
0
VERTEX
8
white
10
26.0615
20
-1.3229
0
VERTEX
8
white
10
13.3615
20
-5.0271
0
VERTEX
8
white
10
10.451
20
-5.5563
0
SEQEND
0
POLYLINE
8
white
66
1
70
1
0
VERTEX
8
white
10
-54.2396
20
21.8281
0
VERTEX
8
white
10
-55.5625
20
19.4469
0
VERTEX
8
white
10
-57.4146
20
13.626
0
VERTEX
8
white
10
-57.6792
20
10.451
0
VERTEX
8
white
10
-57.9438
20
10.1865
0
VERTEX
8
white
10
-57.9438
20
7.0115
0
VERTEX
8
white
10
-57.4146
20
4.101
0
VERTEX
8
white
10
-55.8271
20
0.6615
0
VERTEX
8
white
10
-53.049
20
-2.3813
0
VERTEX
8
white
10
-55.8271
20
0.6615
0
VERTEX
8
white
10
-57.4146
20
4.101
0
VERTEX
8
white
10
-57.9438
20
7.0115
0
VERTEX
8
white
10
-57.9438
20
10.1865
0
VERTEX
8
white
10
-57.15
20
14.6844
0
VERTEX
8
white
10
-55.5625
20
19.4469
0
SEQEND
0
POLYLINE
8
white
66
1
70
1
0
VERTEX
8
white
10
-67.4688
20
3.8365
42
-0.057
0
VERTEX
8
white
10
-54.3719
20
21.9604
0
VERTEX
8
white
10
-54.5042
20
21.5635
0
VERTEX
8
white
10
-55.5625
20
19.4469
0
VERTEX
8
white
10
-54.2396
20
21.8281
0
VERTEX
8
white
10
-54.7688
20
21.9604
0
VERTEX
8
white
10
-61.3833
20
13.3615
0
SEQEND
0
POLYLINE
8
white
66
1
70
1
0
VERTEX
8
white
10
-55.5625
20
19.4469
0
VERTEX
8
white
10
-57.15
20
14.6844
0
VERTEX
8
white
10
-57.9438
20
10.1865
0
VERTEX
8
white
10
-57.9438
20
7.0115
0
VERTEX
8
white
10
-57.4146
20
4.101
0
VERTEX
8
white
10
-55.8271
20
0.6615
0
VERTEX
8
white
10
-53.049
20
-2.3813
0
VERTEX
8
white
10
-55.8271
20
0.6615
0
VERTEX
8
white
10
-57.4146
20
4.101
0
VERTEX
8
white
10
-57.6792
20
7.0115
0
VERTEX
8
white
10
-57.9438
20
7.276
0
VERTEX
8
white
10
-57.9438
20
10.1865
0
VERTEX
8
white
10
-57.15
20
14.6844
0
SEQEND
0
POLYLINE
8
white
66
1
70
0
0
VERTEX
8
white
10
-47.4927
20
-38.6292
0
VERTEX
8
white
10
-53.049
20
-37.0417
0
VERTEX
8
white
10
-59.0021
20
-33.0729
0
VERTEX
8
white
10
-60.5896
20
-30.824
0
VERTEX
8
white
10
-61.9125
20
-27.649
0
VERTEX
8
white
10
-62.1771
20
-26.5906
0
VERTEX
8
white
10
-62.1771
20
-20.7698
42
0.0087
0
VERTEX
8
white
10
-62.2668
20
-21.8603
42
0.0161
0
VERTEX
8
white
10
-62.3243
20
-23.5859
42
0.0211
0
VERTEX
8
white
10
-62.2507
20
-25.4001
42
0.0592
0
VERTEX
8
white
10
-61.5698
20
-28.8727
42
0.1306
0
VERTEX
8
white
10
-59.0021
20
-32.9406
42
0.0108
0
VERTEX
8
white
10
-58.3534
20
-33.5488
42
0.0729
0
VERTEX
8
white
10
-53.049
20
-37.0417
0
SEQEND
0
POLYLINE
8
white
66
1
70
1
0
VERTEX
8
white
10
-6.2177
20
-10.3188
0
VERTEX
8
white
10
-28.4427
20
-16.1396
0
SEQEND
0
POLYLINE
8
white
66
1
70
1
0
VERTEX
8
white
10
-54.7688
20
21.9604
42
0.0437
0
VERTEX
8
white
10
-67.4688
20
3.8365
42
-0.0437
0
SEQEND
0
POLYLINE
8
white
66
1
70
1
0
VERTEX
8
white
10
-44.1854
20
11.3771
42
0.0437
0
VERTEX
8
white
10
-56.8854
20
-6.7469
42
-0.0437
0
SEQEND
0
POLYLINE
8
white
66
1
70
1
0
VERTEX
8
white
10
63.1031
20
8.7313
0
VERTEX
8
white
10
67.0719
20
9.525
0
VERTEX
8
white
10
78.7136
20
12.9646
0
VERTEX
8
white
10
82.6823
20
13.7583
0
VERTEX
8
white
10
78.7136
20
12.9646
0
VERTEX
8
white
10
67.0719
20
9.525
0
SEQEND
0
POLYLINE
8
white
66
1
70
1
0
VERTEX
8
white
10
-55.2979
20
3.8365
0
VERTEX
8
white
10
-55.2979
20
-0.3969
0
VERTEX
8
white
10
-55.2979
20
3.8365
0
VERTEX
8
white
10
-54.2396
20
9.3927
0
VERTEX
8
white
10
-55.2979
20
3.8365
0
VERTEX
8
white
10
-55.2979
20
-0.3969
0
VERTEX
8
white
10
-54.7688
20
-3.3073
0
VERTEX
8
white
10
-53.7104
20
-6.2177
0
VERTEX
8
white
10
-54.7688
20
-3.3073
0
VERTEX
8
white
10
-55.2979
20
-0.3969
0
SEQEND
0
POLYLINE
8
white
66
1
70
1
0
VERTEX
8
white
10
-57.0177
20
-40.4813
0
VERTEX
8
white
10
-60.9865
20
-39.6875
0
VERTEX
8
white
10
-57.0177
20
-40.4813
0
VERTEX
8
white
10
-49.0802
20
-40.4813
0
VERTEX
8
white
10
-57.0177
20
-40.4813
0
VERTEX
8
white
10
-60.9865
20
-39.6875
0
VERTEX
8
white
10
-64.4261
20
-38.3646
0
VERTEX
8
white
10
-60.9865
20
-39.6875
0
SEQEND
0
POLYLINE
8
white
66
1
70
1
0
VERTEX
8
white
10
-73.8188
20
-18.9177
0
VERTEX
8
white
10
-73.025
20
-14.6844
0
VERTEX
8
white
10
-73.8188
20
-18.9177
0
VERTEX
8
white
10
-73.8188
20
-25.2677
0
VERTEX
8
white
10
-73.8188
20
-18.9177
0
VERTEX
8
white
10
-73.025
20
-14.6844
0
VERTEX
8
white
10
-71.7021
20
-10.451
0
VERTEX
8
white
10
-73.025
20
-14.6844
0
SEQEND
0
POLYLINE
8
white
66
1
70
0
0
VERTEX
8
white
10
-6.2177
20
-10.3188
0
VERTEX
8
white
10
-3.3073
20
-9.2604
0
VERTEX
8
white
10
0.6615
20
-8.4667
0
VERTEX
8
white
10
10.451
20
-5.5563
0
VERTEX
8
white
10
13.3615
20
-5.0271
0
VERTEX
8
white
10
10.451
20
-5.5563
0
VERTEX
8
white
10
7.5406
20
-6.6146
0
VERTEX
8
white
10
3.5719
20
-7.4083
0
VERTEX
8
white
10
0.6615
20
-8.4667
0
VERTEX
8
white
10
-3.3073
20
-9.2604
0
SEQEND
0
POLYLINE
8
white
66
1
70
0
0
VERTEX
8
white
10
10.451
20
-5.5563
0
VERTEX
8
white
10
13.3615
20
-5.0271
0
VERTEX
8
white
10
26.0615
20
-1.3229
0
VERTEX
8
white
10
28.9719
20
-0.7938
0
VERTEX
8
white
10
26.0615
20
-1.3229
0
VERTEX
8
white
10
13.3615
20
-5.0271
0
SEQEND
0
POLYLINE
8
white
66
1
70
0
0
VERTEX
8
white
10
-56.8854
20
-6.7469
42
-0.057
0
VERTEX
8
white
10
-43.7885
20
11.3771
0
VERTEX
8
white
10
-43.9208
20
10.9802
0
VERTEX
8
white
10
-44.9792
20
8.8635
0
VERTEX
8
white
10
-43.6563
20
11.2448
0
VERTEX
8
white
10
-44.1854
20
11.3771
0
VERTEX
8
white
10
-43.6563
20
11.2448
0
VERTEX
8
white
10
-44.9792
20
8.8635
0
VERTEX
8
white
10
-43.6563
20
11.2448
0
SEQEND
0
POLYLINE
8
white
66
1
70
1
0
VERTEX
8
white
10
-54.2396
20
9.3927
0
VERTEX
8
white
10
-55.2979
20
3.8365
0
VERTEX
8
white
10
-55.2979
20
-0.3969
0
VERTEX
8
white
10
-54.7688
20
-3.3073
0
VERTEX
8
white
10
-53.7104
20
-6.2177
0
VERTEX
8
white
10
-54.7688
20
-3.3073
0
VERTEX
8
white
10
-55.2979
20
-0.3969
0
VERTEX
8
white
10
-55.2979
20
3.8365
0
SEQEND
0
POLYLINE
8
white
66
1
70
1
0
VERTEX
8
white
10
-49.0802
20
-40.4813
0
VERTEX
8
white
10
-57.0177
20
-40.4813
0
VERTEX
8
white
10
-60.9865
20
-39.6875
0
VERTEX
8
white
10
-64.4261
20
-38.3646
0
VERTEX
8
white
10
-60.9865
20
-39.6875
0
VERTEX
8
white
10
-57.0177
20
-40.4813
0
SEQEND
0
POLYLINE
8
white
66
1
70
1
0
VERTEX
8
white
10
26.0615
20
-1.3229
0
VERTEX
8
white
10
28.9719
20
-0.7938
0
VERTEX
8
white
10
40.6135
20
2.6458
0
VERTEX
8
white
10
28.9719
20
-0.7938
0
SEQEND
0
POLYLINE
8
white
66
1
70
1
0
VERTEX
8
white
10
-73.8188
20
-25.2677
0
VERTEX
8
white
10
-73.8188
20
-18.9177
0
VERTEX
8
white
10
-73.025
20
-14.6844
0
VERTEX
8
white
10
-71.7021
20
-10.451
0
VERTEX
8
white
10
-73.025
20
-14.6844
0
VERTEX
8
white
10
-73.8188
20
-18.9177
0
SEQEND
0
POLYLINE
8
white
66
1
70
0
0
VERTEX
8
white
10
-63.6323
20
-26.4583
42
-0.0729
0
VERTEX
8
white
10
-68.9368
20
-22.9654
42
-0.0108
0
VERTEX
8
white
10
-69.5854
20
-22.3573
42
-0.1306
0
VERTEX
8
white
10
-72.1532
20
-18.2894
42
-0.0592
0
VERTEX
8
white
10
-72.834
20
-14.8168
42
-0.0211
0
VERTEX
8
white
10
-72.9077
20
-13.0025
42
-0.0161
0
VERTEX
8
white
10
-72.8502
20
-11.277
42
-0.0087
0
VERTEX
8
white
10
-72.7604
20
-10.1865
0
VERTEX
8
white
10
-72.7604
20
-16.0073
0
SEQEND
0
POLYLINE
8
white
66
1
70
1
0
VERTEX
8
white
10
-53.049
20
-37.0417
0
VERTEX
8
white
10
-47.4927
20
-38.6292
0
VERTEX
8
white
10
-40.6135
20
-38.6292
0
VERTEX
8
white
10
-47.4927
20
-38.6292
0
SEQEND
0
POLYLINE
8
white
66
1
70
1
0
VERTEX
8
white
10
-60.9865
20
-39.6875
0
VERTEX
8
white
10
-57.0177
20
-40.4813
0
VERTEX
8
white
10
-49.0802
20
-40.4813
0
VERTEX
8
white
10
-57.0177
20
-40.4813
0
SEQEND
0
POLYLINE
8
white
66
1
70
1
0
VERTEX
8
white
10
-28.1781
20
-35.1896
0
VERTEX
8
white
10
-34.2635
20
-37.3063
0
VERTEX
8
white
10
-39.026
20
-38.3646
0
VERTEX
8
white
10
-34.2635
20
-37.3063
0
SEQEND
0
POLYLINE
8
white
66
1
70
0
0
VERTEX
8
white
10
67.0719
20
9.525
0
VERTEX
8
white
10
78.7136
20
12.9646
0
VERTEX
8
white
10
82.6823
20
13.7583
0
VERTEX
8
white
10
83.7406
20
14.2875
0
VERTEX
8
white
10
82.6823
20
13.7583
0
VERTEX
8
white
10
78.7136
20
12.9646
0
SEQEND
0
POLYLINE
8
white
66
1
70
0
0
VERTEX
8
white
10
67.0719
20
9.525
0
VERTEX
8
white
10
69.9823
20
10.5833
0
VERTEX
8
white
10
73.9511
20
11.3771
0
VERTEX
8
white
10
83.7406
20
14.2875
0
VERTEX
8
white
10
82.6823
20
13.7583
0
VERTEX
8
white
10
78.7136
20
12.9646
0
SEQEND
0
POLYLINE
8
white
66
1
70
1
0
VERTEX
8
white
10
-66.8213
20
-0.5524
42
0.0451
0
VERTEX
8
white
10
-71.7021
20
-10.451
42
-0.0451
0
SEQEND
0
POLYLINE
8
white
66
1
70
1
0
VERTEX
8
white
10
-71.7021
20
-10.451
42
-0.0451
0
VERTEX
8
white
10
-66.8213
20
-0.5524
42
0.0451
0
SEQEND
0
POLYLINE
8
white
66
1
70
1
0
VERTEX
8
white
10
-73.025
20
-14.6844
0
VERTEX
8
white
10
-73.8188
20
-18.9177
0
VERTEX
8
white
10
-73.8188
20
-25.2677
0
VERTEX
8
white
10
-73.8188
20
-18.9177
0
SEQEND
0
POLYLINE
8
white
66
1
70
0
0
VERTEX
8
white
10
-58.0761
20
-28.0458
42
-0.0606
0
VERTEX
8
white
10
-63.7501
20
-26.3777
42
-0.1289
0
VERTEX
8
white
10
-70.6438
20
-21.0344
42
-0.0713
0
VERTEX
8
white
10
-72.1701
20
-18.1238
42
-0.0362
0
VERTEX
8
white
10
-72.7604
20
-16.0073
0
SEQEND
0
POLYLINE
8
white
66
1
70
1
0
VERTEX
8
white
10
-55.2979
20
-0.3969
0
VERTEX
8
white
10
-55.2979
20
3.8365
0
VERTEX
8
white
10
-54.2396
20
9.3927
0
VERTEX
8
white
10
-55.2979
20
3.8365
0
SEQEND
0
POLYLINE
8
white
66
1
70
1
0
VERTEX
8
white
10
-44.9792
20
8.8635
0
VERTEX
8
white
10
-46.5667
20
4.101
0
VERTEX
8
white
10
-47.3604
20
-0.3969
0
VERTEX
8
white
10
-47.0958
20
-0.1323
0
VERTEX
8
white
10
-46.8313
20
3.0427
0
SEQEND
0
POLYLINE
8
white
66
1
70
1
0
VERTEX
8
white
10
-49.2125
20
21.0344
42
0.0505
0
VERTEX
8
white
10
-53.2124
20
12.5652
42
-0.0505
0
SEQEND
0
POLYLINE
8
white
66
1
70
1
0
VERTEX
8
white
10
-53.2124
20
12.5652
42
-0.0505
0
VERTEX
8
white
10
-49.2125
20
21.0344
42
0.0505
0
SEQEND
0
POLYLINE
8
white
66
1
70
1
0
VERTEX
8
white
10
-60.0604
20
-31.6177
42
0.1289
0
VERTEX
8
white
10
-53.1668
20
-36.9611
42
-0.1289
0
SEQEND
0
POLYLINE
8
white
66
1
70
1
0
VERTEX
8
white
10
-53.1668
20
-36.9611
42
-0.1289
0
VERTEX
8
white
10
-60.0604
20
-31.6177
42
0.1289
0
SEQEND
0
POLYLINE
8
white
66
1
70
1
0
VERTEX
8
white
10
-70.3517
20
-2.0325
42
0.0428
0
VERTEX
8
white
10
-72.7604
20
-10.1865
42
-0.0428
0
SEQEND
0
POLYLINE
8
white
66
1
70
1
0
VERTEX
8
white
10
-59.7684
20
-12.6158
42
0.0428
0
VERTEX
8
white
10
-62.1771
20
-20.7698
42
-0.0428
0
SEQEND
0
POLYLINE
8
white
66
1
70
0
0
VERTEX
8
white
10
-47.3604
20
-3.5719
0
VERTEX
8
white
10
-46.8313
20
-6.4823
0
VERTEX
8
white
10
-45.2438
20
-9.9219
0
VERTEX
8
white
10
-46.8313
20
-6.4823
0
VERTEX
8
white
10
-47.0958
20
-3.5719
0
VERTEX
8
white
10
-47.3604
20
-3.3073
0
VERTEX
8
white
10
-47.3604
20
-0.3969
0
SEQEND
0
POLYLINE
8
white
66
1
70
0
0
VERTEX
8
white
10
-55.2979
20
3.8365
0
VERTEX
8
white
10
-55.2979
20
-0.3969
0
VERTEX
8
white
10
-54.7688
20
-3.3073
0
VERTEX
8
white
10
-53.7104
20
-6.2177
0
VERTEX
8
white
10
-54.7688
20
-3.3073
0
VERTEX
8
white
10
-55.2979
20
-0.3969
0
SEQEND
0
POLYLINE
8
white
66
1
70
0
0
VERTEX
8
white
10
-28.1781
20
-35.1896
0
VERTEX
8
white
10
-34.2635
20
-37.3063
0
VERTEX
8
white
10
-39.026
20
-38.3646
0
VERTEX
8
white
10
-34.2635
20
-37.3063
0
SEQEND
0
POLYLINE
8
white
66
1
70
1
0
VERTEX
8
white
10
-57.0177
20
-40.4813
0
VERTEX
8
white
10
-49.0802
20
-40.4813
0
SEQEND
0
POLYLINE
8
white
66
1
70
1
0
VERTEX
8
white
10
-46.8313
20
-6.4823
0
VERTEX
8
white
10
-45.2438
20
-9.9219
0
VERTEX
8
white
10
-42.4656
20
-12.9646
0
VERTEX
8
white
10
-45.2438
20
-9.9219
0
SEQEND
0
POLYLINE
8
white
66
1
70
1
0
VERTEX
8
white
10
-46.5667
20
4.101
0
VERTEX
8
white
10
-47.3604
20
-0.3969
0
VERTEX
8
white
10
-47.3604
20
-3.5719
0
VERTEX
8
white
10
-47.3604
20
-0.3969
0
SEQEND
0
POLYLINE
8
white
66
1
70
1
0
VERTEX
8
white
10
-70.1146
20
-33.7344
42
0.099
0
VERTEX
8
white
10
-64.4261
20
-38.3646
42
-0.099
0
SEQEND
0
POLYLINE
8
white
66
1
70
1
0
VERTEX
8
white
10
-64.4261
20
-38.3646
42
-0.099
0
VERTEX
8
white
10
-70.1146
20
-33.7344
42
0.099
0
SEQEND
0
POLYLINE
8
white
66
1
70
1
0
VERTEX
8
white
10
-40.6135
20
-38.6292
0
VERTEX
8
white
10
-47.4927
20
-38.6292
0
SEQEND
0
POLYLINE
8
white
66
1
70
1
0
VERTEX
8
white
10
-47.4927
20
-38.6292
0
VERTEX
8
white
10
-40.6135
20
-38.6292
0
SEQEND
0
POLYLINE
8
white
66
1
70
1
0
VERTEX
8
white
10
-67.4688
20
3.8365
42
0.0412
0
VERTEX
8
white
10
-70.3517
20
-2.0325
42
-0.0412
0
SEQEND
0
POLYLINE
8
white
66
1
70
1
0
VERTEX
8
white
10
-56.8854
20
-6.7469
42
0.0412
0
VERTEX
8
white
10
-59.7684
20
-12.6158
42
-0.0412
0
SEQEND
0
POLYLINE
8
white
66
1
70
1
0
VERTEX
8
white
10
-53.7104
20
-6.2177
42
0.0995
0
VERTEX
8
white
10
-49.6094
20
-11.1125
42
-0.0995
0
SEQEND
0
POLYLINE
8
white
66
1
70
1
0
VERTEX
8
white
10
-49.6094
20
-11.1125
42
-0.0995
0
VERTEX
8
white
10
-53.7104
20
-6.2177
42
0.0995
0
SEQEND
0
POLYLINE
8
white
66
1
70
1
0
VERTEX
8
white
10
-53.7104
20
-6.2177
42
0.099
0
VERTEX
8
white
10
-49.6094
20
-11.1125
42
-0.099
0
SEQEND
0
POLYLINE
8
white
66
1
70
0
0
VERTEX
8
white
10
-43.6563
20
11.2448
0
VERTEX
8
white
10
-44.9792
20
8.8635
0
VERTEX
8
white
10
-46.5667
20
4.101
0
VERTEX
8
white
10
-44.9792
20
8.8635
0
SEQEND
0
POLYLINE
8
white
66
1
70
1
0
VERTEX
8
white
10
-73.8188
20
-18.9177
0
VERTEX
8
white
10
-73.8188
20
-25.2677
0
SEQEND
0
POLYLINE
8
white
66
1
70
1
0
VERTEX
8
white
10
-53.1668
20
-36.9611
42
0.0606
0
VERTEX
8
white
10
-47.4927
20
-38.6292
42
-0.0606
0
SEQEND
0
POLYLINE
8
white
66
1
70
1
0
VERTEX
8
white
10
-47.4927
20
-38.6292
42
-0.0606
0
VERTEX
8
white
10
-53.1668
20
-36.9611
42
0.0606
0
SEQEND
0
POLYLINE
8
white
66
1
70
1
0
VERTEX
8
white
10
-55.2979
20
3.8365
0
VERTEX
8
white
10
-54.2396
20
9.3927
0
SEQEND
0
POLYLINE
8
white
66
1
70
1
0
VERTEX
8
white
10
-53.049
20
-2.3813
42
0.105
0
VERTEX
8
white
10
-48.4861
20
-4.8412
42
-0.105
0
SEQEND
0
POLYLINE
8
white
66
1
70
1
0
VERTEX
8
white
10
-48.4861
20
-4.8412
42
-0.105
0
VERTEX
8
white
10
-53.049
20
-2.3813
42
0.105
0
SEQEND
0
POLYLINE
8
white
66
1
70
1
0
VERTEX
8
white
10
-42.4656
20
-12.9646
42
0.105
0
VERTEX
8
white
10
-37.9027
20
-15.4245
42
-0.105
0
SEQEND
0
POLYLINE
8
white
66
1
70
1
0
VERTEX
8
white
10
-37.9027
20
-15.4245
42
-0.105
0
VERTEX
8
white
10
-42.4656
20
-12.9646
42
0.105
0
SEQEND
0
POLYLINE
8
white
66
1
70
1
0
VERTEX
8
white
10
-72.6941
20
-29.5422
42
0.086
0
VERTEX
8
white
10
-70.1146
20
-33.7344
42
-0.086
0
SEQEND
0
POLYLINE
8
white
66
1
70
1
0
VERTEX
8
white
10
-70.1146
20
-33.7344
42
-0.086
0
VERTEX
8
white
10
-72.6941
20
-29.5422
42
0.086
0
SEQEND
0
POLYLINE
8
white
66
1
70
0
0
VERTEX
8
white
10
-47.3604
20
-0.3969
0
VERTEX
8
white
10
-47.3604
20
-3.5719
0
VERTEX
8
white
10
-46.8313
20
-6.4823
0
VERTEX
8
white
10
-47.3604
20
-3.5719
0
SEQEND
0
POLYLINE
8
white
66
1
70
1
0
VERTEX
8
white
10
-49.6094
20
-11.1125
42
0.0708
0
VERTEX
8
white
10
-45.6669
20
-13.3195
42
-0.0708
0
SEQEND
0
POLYLINE
8
white
66
1
70
1
0
VERTEX
8
white
10
-45.6669
20
-13.3195
42
-0.0708
0
VERTEX
8
white
10
-49.6094
20
-11.1125
42
0.0708
0
SEQEND
0
POLYLINE
8
white
66
1
70
1
0
VERTEX
8
white
10
-37.9027
20
-15.4245
42
0.055
0
VERTEX
8
white
10
-33.6926
20
-16.1958
42
-0.055
0
SEQEND
0
POLYLINE
8
white
66
1
70
1
0
VERTEX
8
white
10
-33.6926
20
-16.1958
42
-0.055
0
VERTEX
8
white
10
-37.9027
20
-15.4245
42
0.055
0
SEQEND
0
POLYLINE
8
white
66
1
70
1
0
VERTEX
8
white
10
-48.4861
20
-4.8412
42
0.055
0
VERTEX
8
white
10
-44.2759
20
-5.6125
42
-0.055
0
SEQEND
0
POLYLINE
8
white
66
1
70
1
0
VERTEX
8
white
10
-44.2759
20
-5.6125
42
-0.055
0
VERTEX
8
white
10
-48.4861
20
-4.8412
42
0.055
0
SEQEND
0
POLYLINE
8
white
66
1
70
1
0
VERTEX
8
white
10
-40.0844
20
-14.5521
0
VERTEX
8
white
10
-40.349
20
-14.2875
0
VERTEX
8
white
10
-43.524
20
-14.0229
0
VERTEX
8
white
10
-40.349
20
-14.2875
0
SEQEND
0
POLYLINE
8
white
66
1
70
1
0
VERTEX
8
white
10
-53.2124
20
12.5652
42
0.0152
0
VERTEX
8
white
10
-54.2396
20
9.3927
42
-0.0152
0
SEQEND
0
POLYLINE
8
white
66
1
70
1
0
VERTEX
8
white
10
-54.2396
20
9.3927
42
-0.0152
0
VERTEX
8
white
10
-53.2124
20
12.5652
42
0.0152
0
SEQEND
0
POLYLINE
8
white
66
1
70
1
0
VERTEX
8
white
10
-61.5868
20
-28.7071
42
0.0713
0
VERTEX
8
white
10
-60.0604
20
-31.6177
42
-0.0713
0
SEQEND
0
POLYLINE
8
white
66
1
70
1
0
VERTEX
8
white
10
-60.0604
20
-31.6177
42
-0.0713
0
VERTEX
8
white
10
-61.5868
20
-28.7071
42
0.0713
0
SEQEND
0
POLYLINE
8
white
66
1
70
1
0
VERTEX
8
white
10
-55.5625
20
19.4469
0
VERTEX
8
white
10
-54.2396
20
21.8281
0
VERTEX
8
white
10
-54.7688
20
21.9604
0
VERTEX
8
white
10
-54.2396
20
21.8281
0
SEQEND
0
POLYLINE
8
white
66
1
70
1
0
VERTEX
8
white
10
-40.349
20
-14.2875
0
VERTEX
8
white
10
-43.524
20
-14.0229
0
SEQEND
0
POLYLINE
8
white
66
1
70
1
0
VERTEX
8
white
10
-73.5542
20
-26.8552
42
0.0376
0
VERTEX
8
white
10
-72.6941
20
-29.5422
42
-0.0376
0
SEQEND
0
POLYLINE
8
white
66
1
70
1
0
VERTEX
8
white
10
-72.6941
20
-29.5422
42
-0.0376
0
VERTEX
8
white
10
-73.5542
20
-26.8552
42
0.0376
0
SEQEND
0
POLYLINE
8
white
66
1
70
1
0
VERTEX
8
white
10
-46.9635
20
-40.2167
42
0.0157
0
VERTEX
8
white
10
-47.3483
20
-40.125
42
0.021
0
VERTEX
8
white
10
-47.7193
20
-40.0647
42
0.0285
0
VERTEX
8
white
10
-48.0648
20
-40.0429
42
0.0005
0
VERTEX
8
white
10
-48.0699
20
-40.0429
42
0.0534
0
VERTEX
8
white
10
-48.4655
20
-40.0815
42
0.1008
0
VERTEX
8
white
10
-48.8567
20
-40.2456
42
0.0999
0
VERTEX
8
white
10
-49.0802
20
-40.4813
42
-0.0734
0
VERTEX
8
white
10
-48.9104
20
-40.2857
42
-0.12
0
VERTEX
8
white
10
-48.4766
20
-40.0741
42
-0.0587
0
VERTEX
8
white
10
-48.0691
20
-40.0303
42
-0.0307
0
VERTEX
8
white
10
-47.7236
20
-40.053
42
-0.023
0
VERTEX
8
white
10
-47.3473
20
-40.1184
42
-0.0168
0
SEQEND
0
POLYLINE
8
white
66
1
70
1
0
VERTEX
8
white
10
-45.6669
20
-13.3195
42
0.0282
0
VERTEX
8
white
10
-43.524
20
-14.0229
42
-0.0282
0
SEQEND
0
POLYLINE
8
white
66
1
70
1
0
VERTEX
8
white
10
-43.524
20
-14.0229
42
-0.0282
0
VERTEX
8
white
10
-45.6669
20
-13.3195
42
0.0282
0
SEQEND
0
POLYLINE
8
white
66
1
70
1
0
VERTEX
8
white
10
-62.1771
20
-26.5906
42
0.0362
0
VERTEX
8
white
10
-61.5868
20
-28.7071
42
-0.0362
0
SEQEND
0
POLYLINE
8
white
66
1
70
1
0
VERTEX
8
white
10
-61.5868
20
-28.7071
42
-0.0362
0
VERTEX
8
white
10
-62.1771
20
-26.5906
42
0.0362
0
SEQEND
0
POLYLINE
8
white
66
1
70
1
0
VERTEX
8
white
10
-33.6926
20
-16.1958
42
0.0198
0
VERTEX
8
white
10
-31.5117
20
-16.2793
42
-0.0198
0
SEQEND
0
POLYLINE
8
white
66
1
70
1
0
VERTEX
8
white
10
-31.5117
20
-16.2793
42
-0.0198
0
VERTEX
8
white
10
-33.6926
20
-16.1958
42
0.0198
0
SEQEND
0
POLYLINE
8
white
66
1
70
1
0
VERTEX
8
white
10
-44.2759
20
-5.6125
42
0.0198
0
VERTEX
8
white
10
-42.0951
20
-5.696
42
-0.0198
0
SEQEND
0
POLYLINE
8
white
66
1
70
1
0
VERTEX
8
white
10
-42.0951
20
-5.696
42
-0.0198
0
VERTEX
8
white
10
-44.2759
20
-5.6125
42
0.0198
0
SEQEND
0
POLYLINE
8
white
66
1
70
1
0
VERTEX
8
white
10
-42.0951
20
-5.696
42
0.014
0
VERTEX
8
white
10
-40.2097
20
-5.6414
42
-0.014
0
SEQEND
0
POLYLINE
8
white
66
1
70
1
0
VERTEX
8
white
10
-40.2097
20
-5.6414
42
-0.014
0
VERTEX
8
white
10
-42.0951
20
-5.696
42
0.014
0
SEQEND
0
POLYLINE
8
white
66
1
70
1
0
VERTEX
8
white
10
-31.5117
20
-16.2793
42
0.014
0
VERTEX
8
white
10
-29.6263
20
-16.2247
42
-0.014
0
SEQEND
0
POLYLINE
8
white
66
1
70
1
0
VERTEX
8
white
10
-29.6263
20
-16.2247
42
-0.014
0
VERTEX
8
white
10
-31.5117
20
-16.2793
42
0.014
0
SEQEND
0
POLYLINE
8
white
66
1
70
1
0
VERTEX
8
white
10
-65.8813
20
0.926
42
0.0078
0
VERTEX
8
white
10
-66.8213
20
-0.5524
42
-0.0078
0
SEQEND
0
POLYLINE
8
white
66
1
70
1
0
VERTEX
8
white
10
-66.8213
20
-0.5524
42
-0.0078
0
VERTEX
8
white
10
-65.8813
20
0.926
42
0.0078
0
SEQEND
0
POLYLINE
8
white
66
1
70
1
0
VERTEX
8
white
10
-73.5542
20
-26.8552
42
0.0149
0
VERTEX
8
white
10
-73.4951
20
-26.5867
42
0.0204
0
VERTEX
8
white
10
-73.4554
20
-26.318
42
0.0259
0
VERTEX
8
white
10
-73.4421
20
-26.0774
42
0.0529
0
VERTEX
8
white
10
-73.4719
20
-25.7691
42
0.1009
0
VERTEX
8
white
10
-73.5994
20
-25.463
42
0.1168
0
VERTEX
8
white
10
-73.8188
20
-25.2677
42
-0.101
0
VERTEX
8
white
10
-73.6145
20
-25.4315
42
-0.1167
0
VERTEX
8
white
10
-73.4625
20
-25.7526
42
-0.0575
0
VERTEX
8
white
10
-73.43
20
-26.0622
42
-0.0282
0
VERTEX
8
white
10
-73.4448
20
-26.3078
42
-0.0218
0
VERTEX
8
white
10
-73.4887
20
-26.5807
42
-0.0159
0
SEQEND
0
POLYLINE
8
white
66
1
70
1
0
VERTEX
8
white
10
-40.2097
20
-5.6414
42
0.0077
0
VERTEX
8
white
10
-39.026
20
-5.5563
42
-0.0077
0
SEQEND
0
POLYLINE
8
white
66
1
70
1
0
VERTEX
8
white
10
-39.026
20
-5.5563
42
-0.0077
0
VERTEX
8
white
10
-40.2097
20
-5.6414
42
0.0077
0
SEQEND
0
POLYLINE
8
white
66
1
70
1
0
VERTEX
8
white
10
-29.6263
20
-16.2247
42
0.0077
0
VERTEX
8
white
10
-28.4427
20
-16.1396
42
-0.0077
0
SEQEND
0
POLYLINE
8
white
66
1
70
1
0
VERTEX
8
white
10
-28.4427
20
-16.1396
42
-0.0077
0
VERTEX
8
white
10
-29.6263
20
-16.2247
42
0.0077
0
SEQEND
0
POLYLINE
8
white
66
1
70
1
0
VERTEX
8
white
10
-48.4619
20
-40.0836
42
0.1046
0
VERTEX
8
white
10
-48.871
20
-40.2618
42
-0.1046
0
SEQEND
0
POLYLINE
8
white
66
1
70
1
0
VERTEX
8
white
10
-48.871
20
-40.2618
42
-0.1046
0
VERTEX
8
white
10
-48.4619
20
-40.0836
42
0.1046
0
SEQEND
0
POLYLINE
8
white
66
1
70
1
0
VERTEX
8
white
10
-49.0802
20
21.4313
0
VERTEX
8
white
10
-49.2125
20
21.0344
0
SEQEND
0
POLYLINE
8
white
66
1
70
1
0
VERTEX
8
white
10
-49.2125
20
21.0344
0
VERTEX
8
white
10
-49.0802
20
21.4313
0
SEQEND
0
POLYLINE
8
white
66
1
70
1
0
VERTEX
8
white
10
-48.0574
20
-40.0429
42
0.0549
0
VERTEX
8
white
10
-48.4619
20
-40.0836
42
-0.0549
0
SEQEND
0
POLYLINE
8
white
66
1
70
1
0
VERTEX
8
white
10
-48.4619
20
-40.0836
42
-0.0549
0
VERTEX
8
white
10
-48.0574
20
-40.0429
42
0.0549
0
SEQEND
0
POLYLINE
8
white
66
1
70
1
0
VERTEX
8
white
10
-73.4642
20
-25.7583
42
0.1267
0
VERTEX
8
white
10
-73.6408
20
-25.4091
42
-0.1267
0
SEQEND
0
POLYLINE
8
white
66
1
70
1
0
VERTEX
8
white
10
122.3155
20
-74.3923
42
0.4142
0
VERTEX
8
white
10
122.1897
20
-74.5181
42
0.4142
0
VERTEX
8
white
10
122.3155
20
-74.6439
42
0.4142
0
VERTEX
8
white
10
122.4414
20
-74.5181
42
0.4142
0
SEQEND
0
POLYLINE
8
white
66
1
70
1
0
VERTEX
8
white
10
-46.9635
20
-40.2167
42
0.016
0
VERTEX
8
white
10
-47.3427
20
-40.125
42
-0.016
0
SEQEND
0
POLYLINE
8
white
66
1
70
1
0
VERTEX
8
white
10
-47.3427
20
-40.125
42
-0.016
0
VERTEX
8
white
10
-46.9635
20
-40.2167
42
0.016
0
SEQEND
0
POLYLINE
8
white
66
1
70
1
0
VERTEX
8
white
10
-47.3427
20
-40.125
42
0.0221
0
VERTEX
8
white
10
-47.7192
20
-40.0636
42
-0.0221
0
SEQEND
0
POLYLINE
8
white
66
1
70
1
0
VERTEX
8
white
10
-47.7192
20
-40.0636
42
-0.0221
0
VERTEX
8
white
10
-47.3427
20
-40.125
42
0.0221
0
SEQEND
0
POLYLINE
8
white
66
1
70
1
0
VERTEX
8
white
10
74.6267
20
24.5936
42
0.315
0
VERTEX
8
white
10
74.4326
20
24.8923
42
-0.315
0
SEQEND
0
POLYLINE
8
white
66
1
70
1
0
VERTEX
8
white
10
74.4326
20
24.8923
42
-0.315
0
VERTEX
8
white
10
74.6267
20
24.5936
42
0.315
0
SEQEND
0
POLYLINE
8
white
66
1
70
1
0
VERTEX
8
white
10
85.2101
20
14.0103
42
0.315
0
VERTEX
8
white
10
85.0159
20
14.3089
42
-0.315
0
SEQEND
0
POLYLINE
8
white
66
1
70
1
0
VERTEX
8
white
10
85.0159
20
14.3089
42
-0.315
0
VERTEX
8
white
10
85.2101
20
14.0103
42
0.315
0
SEQEND
0
POLYLINE
8
white
66
1
70
1
0
VERTEX
8
white
10
-73.4753
20
-25.7669
42
0.1089
0
VERTEX
8
white
10
-73.6227
20
-25.4403
42
-0.1089
0
SEQEND
0
POLYLINE
8
white
66
1
70
1
0
VERTEX
8
white
10
-40.1144
20
-38.2857
42
0.1089
0
VERTEX
8
white
10
-40.441
20
-38.4331
42
-0.1089
0
SEQEND
0
POLYLINE
8
white
66
1
70
1
0
VERTEX
8
white
10
-47.7192
20
-40.0636
42
0.0286
0
VERTEX
8
white
10
-48.0574
20
-40.0429
42
-0.0286
0
SEQEND
0
POLYLINE
8
white
66
1
70
1
0
VERTEX
8
white
10
-48.0574
20
-40.0429
42
-0.0286
0
VERTEX
8
white
10
-47.7192
20
-40.0636
42
0.0286
0
SEQEND
0
POLYLINE
8
white
66
1
70
1
0
VERTEX
8
white
10
-40.1122
20
-38.2823
42
0.1009
0
VERTEX
8
white
10
-40.4183
20
-38.4098
42
-0.1009
0
SEQEND
0
POLYLINE
8
white
66
1
70
1
0
VERTEX
8
white
10
-73.4421
20
-26.0895
42
0.0563
0
VERTEX
8
white
10
-73.4753
20
-25.7669
42
-0.0563
0
SEQEND
0
POLYLINE
8
white
66
1
70
1
0
VERTEX
8
white
10
-39.7918
20
-38.2525
42
0.0563
0
VERTEX
8
white
10
-40.1144
20
-38.2857
42
-0.0563
0
SEQEND
0
POLYLINE
8
white
66
1
70
1
0
VERTEX
8
white
10
-73.43
20
-26.0744
42
0.0592
0
VERTEX
8
white
10
-73.4642
20
-25.7583
42
-0.0592
0
SEQEND
0
POLYLINE
8
white
66
1
70
1
0
VERTEX
8
white
10
-39.8039
20
-38.2525
42
0.0529
0
VERTEX
8
white
10
-40.1122
20
-38.2823
42
-0.0529
0
SEQEND
0
POLYLINE
8
white
66
1
70
1
0
VERTEX
8
white
10
-48.871
20
-40.2618
42
0.088
0
VERTEX
8
white
10
-49.0802
20
-40.4813
42
-0.088
0
SEQEND
0
POLYLINE
8
white
66
1
70
1
0
VERTEX
8
white
10
-49.0802
20
-40.4813
42
-0.088
0
VERTEX
8
white
10
-48.871
20
-40.2618
42
0.088
0
SEQEND
0
POLYLINE
8
white
66
1
70
1
0
VERTEX
8
white
10
-40.4183
20
-38.4098
42
0.1168
0
VERTEX
8
white
10
-40.6135
20
-38.6292
42
-0.1168
0
SEQEND
0
POLYLINE
8
white
66
1
70
1
0
VERTEX
8
white
10
-73.5542
20
-26.8552
42
0.0171
0
VERTEX
8
white
10
-73.4904
20
-26.5667
42
-0.0171
0
SEQEND
0
POLYLINE
8
white
66
1
70
1
0
VERTEX
8
white
10
-39.026
20
-38.3646
42
0.0171
0
VERTEX
8
white
10
-39.3145
20
-38.3008
42
-0.0171
0
SEQEND
0
POLYLINE
8
white
66
1
70
1
0
VERTEX
8
white
10
-73.5542
20
-26.8552
42
0.0164
0
VERTEX
8
white
10
-73.4887
20
-26.586
42
-0.0164
0
SEQEND
0
POLYLINE
8
white
66
1
70
1
0
VERTEX
8
white
10
-39.026
20
-38.3646
42
0.0149
0
VERTEX
8
white
10
-39.2946
20
-38.3055
42
-0.0149
0
SEQEND
0
POLYLINE
8
white
66
1
70
1
0
VERTEX
8
white
10
-73.4887
20
-26.586
42
0.0224
0
VERTEX
8
white
10
-73.4446
20
-26.3163
42
-0.0224
0
SEQEND
0
POLYLINE
8
white
66
1
70
1
0
VERTEX
8
white
10
-39.2946
20
-38.3055
42
0.0204
0
VERTEX
8
white
10
-39.5633
20
-38.2658
42
-0.0204
0
SEQEND
0
POLYLINE
8
white
66
1
70
1
0
VERTEX
8
white
10
84.0067
20
14.3347
42
0.0098
0
VERTEX
8
white
10
83.7406
20
14.2875
42
-0.0098
0
SEQEND
0
POLYLINE
8
white
66
1
70
1
0
VERTEX
8
white
10
83.7406
20
14.2875
42
-0.0098
0
VERTEX
8
white
10
84.0067
20
14.3347
42
0.0098
0
SEQEND
0
POLYLINE
8
white
66
1
70
1
0
VERTEX
8
white
10
73.4234
20
24.9181
42
0.0098
0
VERTEX
8
white
10
73.1573
20
24.8708
42
-0.0098
0
SEQEND
0
POLYLINE
8
white
66
1
70
1
0
VERTEX
8
white
10
73.1573
20
24.8708
42
-0.0098
0
VERTEX
8
white
10
73.4234
20
24.9181
42
0.0098
0
SEQEND
0
POLYLINE
8
white
66
1
70
1
0
VERTEX
8
white
10
-73.4904
20
-26.5667
42
0.0216
0
VERTEX
8
white
10
-73.4527
20
-26.3012
42
-0.0216
0
SEQEND
0
POLYLINE
8
white
66
1
70
1
0
VERTEX
8
white
10
-39.3145
20
-38.3008
42
0.0216
0
VERTEX
8
white
10
-39.5801
20
-38.2631
42
-0.0216
0
SEQEND
0
POLYLINE
8
white
66
1
70
1
0
VERTEX
8
white
10
-40.441
20
-38.4331
42
0.0963
0
VERTEX
8
white
10
-40.6135
20
-38.6292
42
-0.0963
0
SEQEND
0
POLYLINE
8
white
66
1
70
1
0
VERTEX
8
white
10
-73.6227
20
-25.4403
42
0.0963
0
VERTEX
8
white
10
-73.8188
20
-25.2677
42
-0.0963
0
SEQEND
0
POLYLINE
8
white
66
1
70
1
0
VERTEX
8
white
10
74.2297
20
24.9512
42
0.0392
0
VERTEX
8
white
10
73.9827
20
24.9685
42
-0.0392
0
SEQEND
0
POLYLINE
8
white
66
1
70
1
0
VERTEX
8
white
10
73.9827
20
24.9685
42
-0.0392
0
VERTEX
8
white
10
74.2297
20
24.9512
42
0.0392
0
SEQEND
0
POLYLINE
8
white
66
1
70
1
0
VERTEX
8
white
10
84.813
20
14.3679
42
0.0392
0
VERTEX
8
white
10
84.566
20
14.3852
42
-0.0392
0
SEQEND
0
POLYLINE
8
white
66
1
70
1
0
VERTEX
8
white
10
84.566
20
14.3852
42
-0.0392
0
VERTEX
8
white
10
84.813
20
14.3679
42
0.0392
0
SEQEND
0
POLYLINE
8
white
66
1
70
1
0
VERTEX
8
white
10
-73.4446
20
-26.3163
42
0.0285
0
VERTEX
8
white
10
-73.43
20
-26.0744
42
-0.0285
0
SEQEND
0
POLYLINE
8
white
66
1
70
1
0
VERTEX
8
white
10
-39.5633
20
-38.2658
42
0.0259
0
VERTEX
8
white
10
-39.8039
20
-38.2525
42
-0.0259
0
SEQEND
0
POLYLINE
8
white
66
1
70
1
0
VERTEX
8
white
10
73.6534
20
24.9488
42
0.0117
0
VERTEX
8
white
10
73.4234
20
24.9181
42
-0.0117
0
SEQEND
0
POLYLINE
8
white
66
1
70
1
0
VERTEX
8
white
10
73.4234
20
24.9181
42
-0.0117
0
VERTEX
8
white
10
73.6534
20
24.9488
42
0.0117
0
SEQEND
0
POLYLINE
8
white
66
1
70
1
0
VERTEX
8
white
10
84.2368
20
14.3655
42
0.0117
0
VERTEX
8
white
10
84.0067
20
14.3347
42
-0.0117
0
SEQEND
0
POLYLINE
8
white
66
1
70
1
0
VERTEX
8
white
10
84.0067
20
14.3347
42
-0.0117
0
VERTEX
8
white
10
84.2368
20
14.3655
42
0.0117
0
SEQEND
0
POLYLINE
8
white
66
1
70
1
0
VERTEX
8
white
10
-73.6408
20
-25.4091
42
0.081
0
VERTEX
8
white
10
-73.8188
20
-25.2677
42
-0.081
0
SEQEND
0
POLYLINE
8
white
66
1
70
1
0
VERTEX
8
white
10
84.4505
20
14.3824
42
0.0155
0
VERTEX
8
white
10
84.2368
20
14.3655
42
-0.0155
0
SEQEND
0
POLYLINE
8
white
66
1
70
1
0
VERTEX
8
white
10
84.2368
20
14.3655
42
-0.0155
0
VERTEX
8
white
10
84.4505
20
14.3824
42
0.0155
0
SEQEND
0
POLYLINE
8
white
66
1
70
1
0
VERTEX
8
white
10
73.8671
20
24.9658
42
0.0155
0
VERTEX
8
white
10
73.6534
20
24.9488
42
-0.0155
0
SEQEND
0
POLYLINE
8
white
66
1
70
1
0
VERTEX
8
white
10
73.6534
20
24.9488
42
-0.0155
0
VERTEX
8
white
10
73.8671
20
24.9658
42
0.0155
0
SEQEND
0
POLYLINE
8
white
66
1
70
1
0
VERTEX
8
white
10
85.0159
20
14.3089
42
0.0715
0
VERTEX
8
white
10
84.813
20
14.3679
42
-0.0715
0
SEQEND
0
POLYLINE
8
white
66
1
70
1
0
VERTEX
8
white
10
84.813
20
14.3679
42
-0.0715
0
VERTEX
8
white
10
85.0159
20
14.3089
42
0.0715
0
SEQEND
0
POLYLINE
8
white
66
1
70
1
0
VERTEX
8
white
10
74.4326
20
24.8923
42
0.0715
0
VERTEX
8
white
10
74.2297
20
24.9512
42
-0.0715
0
SEQEND
0
POLYLINE
8
white
66
1
70
1
0
VERTEX
8
white
10
74.2297
20
24.9512
42
-0.0715
0
VERTEX
8
white
10
74.4326
20
24.8923
42
0.0715
0
SEQEND
0
POLYLINE
8
white
66
1
70
1
0
VERTEX
8
white
10
-39.5801
20
-38.2631
42
0.0237
0
VERTEX
8
white
10
-39.7918
20
-38.2525
42
-0.0237
0
SEQEND
0
POLYLINE
8
white
66
1
70
1
0
VERTEX
8
white
10
-73.4527
20
-26.3012
42
0.0237
0
VERTEX
8
white
10
-73.4421
20
-26.0895
42
-0.0237
0
SEQEND
0
POLYLINE
8
white
66
1
70
1
0
VERTEX
8
white
10
73.9827
20
24.9685
42
0.0115
0
VERTEX
8
white
10
73.8671
20
24.9658
42
-0.0115
0
SEQEND
0
POLYLINE
8
white
66
1
70
1
0
VERTEX
8
white
10
73.8671
20
24.9658
42
-0.0115
0
VERTEX
8
white
10
73.9827
20
24.9685
42
0.0115
0
SEQEND
0
POLYLINE
8
white
66
1
70
1
0
VERTEX
8
white
10
84.566
20
14.3852
42
0.0115
0
VERTEX
8
white
10
84.4505
20
14.3824
42
-0.0115
0
SEQEND
0
POLYLINE
8
white
66
1
70
1
0
VERTEX
8
white
10
84.4505
20
14.3824
42
-0.0115
0
VERTEX
8
white
10
84.566
20
14.3852
42
0.0115
0
SEQEND
0
POLYLINE
8
white
66
1
70
1
0
VERTEX
8
white
10
74.6203
20
24.5151
42
0.0387
0
VERTEX
8
white
10
74.6267
20
24.5936
42
-0.0387
0
SEQEND
0
POLYLINE
8
white
66
1
70
1
0
VERTEX
8
white
10
74.6267
20
24.5936
42
-0.0387
0
VERTEX
8
white
10
74.6203
20
24.5151
42
0.0387
0
SEQEND
0
POLYLINE
8
white
66
1
70
1
0
VERTEX
8
white
10
85.2036
20
13.9317
42
0.0387
0
VERTEX
8
white
10
85.2101
20
14.0103
42
-0.0387
0
SEQEND
0
POLYLINE
8
white
66
1
70
1
0
VERTEX
8
white
10
85.2101
20
14.0103
42
-0.0387
0
VERTEX
8
white
10
85.2036
20
13.9317
42
0.0387
0
SEQEND
0
POLYLINE
8
white
66
1
70
1
0
VERTEX
8
white
10
85.1958
20
13.8906
42
0.016
0
VERTEX
8
white
10
85.2036
20
13.9317
42
-0.016
0
SEQEND
0
POLYLINE
8
white
66
1
70
1
0
VERTEX
8
white
10
85.2036
20
13.9317
42
-0.016
0
VERTEX
8
white
10
85.1958
20
13.8906
42
0.016
0
SEQEND
0
POLYLINE
8
white
66
1
70
1
0
VERTEX
8
white
10
74.6125
20
24.474
42
0.016
0
VERTEX
8
white
10
74.6203
20
24.5151
42
-0.016
0
SEQEND
0
POLYLINE
8
white
66
1
70
1
0
VERTEX
8
white
10
74.6203
20
24.5151
42
-0.016
0
VERTEX
8
white
10
74.6125
20
24.474
42
0.016
0
SEQEND
0
POLYLINE
8
red
66
1
70
1
0
VERTEX
8
red
10
151.5043
20
-19.7891
42
0.4142
0
VERTEX
8
red
10
124.9576
20
-46.3358
42
0.4142
0
VERTEX
8
red
10
151.5043
20
-72.8826
42
0.4142
0
VERTEX
8
red
10
178.0511
20
-46.3358
42
0.4142
0
SEQEND
0
POLYLINE
8
red
66
1
70
1
0
VERTEX
8
red
10
174.9287
20
-40.7193
0
VERTEX
8
red
10
166.6125
20
-44.4198
0
VERTEX
8
red
10
164.3842
20
-45.2952
0
VERTEX
8
red
10
155.3915
20
-49.2742
0
VERTEX
8
red
10
140.8282
20
-55.4816
0
VERTEX
8
red
10
138.9979
20
-56.1182
0
VERTEX
8
red
10
137.5654
20
-56.4365
42
0.0149
0
VERTEX
8
red
10
137.4846
20
-56.4188
42
0.0204
0
VERTEX
8
red
10
137.4038
20
-56.4068
42
0.0259
0
VERTEX
8
red
10
137.3315
20
-56.4028
42
0.0529
0
VERTEX
8
red
10
137.2387
20
-56.4118
42
0.1009
0
VERTEX
8
red
10
137.1467
20
-56.4501
42
0.1168
0
VERTEX
8
red
10
137.0879
20
-56.5161
0
VERTEX
8
red
10
135.0188
20
-56.5161
0
VERTEX
8
red
10
133.3476
20
-56.0386
42
-0.0729
0
VERTEX
8
red
10
131.7521
20
-54.988
42
-0.0108
0
VERTEX
8
red
10
131.557
20
-54.8051
42
-0.1306
0
VERTEX
8
red
10
130.7847
20
-53.5816
42
-0.0592
0
VERTEX
8
red
10
130.5799
20
-52.5371
42
-0.0211
0
VERTEX
8
red
10
130.5578
20
-51.9914
42
-0.0161
0
VERTEX
8
red
10
130.5751
20
-51.4724
42
-0.0087
0
VERTEX
8
red
10
130.6021
20
-51.1444
42
-0.0428
0
VERTEX
8
red
10
131.3266
20
-48.6919
42
-0.0412
0
VERTEX
8
red
10
132.1937
20
-46.9266
42
-0.0437
0
VERTEX
8
red
10
136.0136
20
-41.4753
0
VERTEX
8
red
10
136.1727
20
-41.5151
0
VERTEX
8
red
10
135.7748
20
-42.2313
0
VERTEX
8
red
10
135.2973
20
-43.6638
0
VERTEX
8
red
10
135.0586
20
-45.0167
0
VERTEX
8
red
10
135.0586
20
-45.8921
0
VERTEX
8
red
10
135.1382
20
-45.9716
0
VERTEX
8
red
10
135.2178
20
-46.847
0
VERTEX
8
red
10
135.6953
20
-47.8816
0
VERTEX
8
red
10
136.5309
20
-48.7968
42
0.105
0
VERTEX
8
red
10
137.9033
20
-49.5367
42
0.055
0
VERTEX
8
red
10
139.1696
20
-49.7686
42
0.0198
0
VERTEX
8
red
10
139.8256
20
-49.7938
42
0.014
0
VERTEX
8
red
10
140.3926
20
-49.7773
42
0.0077
0
VERTEX
8
red
10
140.7486
20
-49.7517
0
VERTEX
8
red
10
147.4335
20
-48.001
0
VERTEX
8
red
10
148.3088
20
-47.6826
0
VERTEX
8
red
10
149.5026
20
-47.4439
0
VERTEX
8
red
10
152.4471
20
-46.5685
0
VERTEX
8
red
10
153.3224
20
-46.4093
0
VERTEX
8
red
10
156.824
20
-45.3748
0
VERTEX
8
red
10
158.0177
20
-45.136
0
VERTEX
8
red
10
161.5193
20
-44.1015
0
VERTEX
8
red
10
162.713
20
-43.8627
0
VERTEX
8
red
10
163.5884
20
-43.5444
0
VERTEX
8
red
10
164.7821
20
-43.3057
0
VERTEX
8
red
10
168.2837
20
-42.2711
0
VERTEX
8
red
10
169.4774
20
-42.0324
0
VERTEX
8
red
10
172.9789
20
-40.9978
0
VERTEX
8
red
10
174.1727
20
-40.7591
0
VERTEX
8
red
10
174.491
20
-40.5999
42
-0.0098
0
VERTEX
8
red
10
174.571
20
-40.5857
42
-0.0117
0
VERTEX
8
red
10
174.6402
20
-40.5765
42
-0.0155
0
VERTEX
8
red
10
174.7045
20
-40.5714
42
-0.0115
0
VERTEX
8
red
10
174.7392
20
-40.5705
42
-0.0392
0
VERTEX
8
red
10
174.8135
20
-40.5757
42
-0.0715
0
VERTEX
8
red
10
174.8746
20
-40.5935
42
-0.315
0
VERTEX
8
red
10
174.933
20
-40.6833
42
-0.0387
0
VERTEX
8
red
10
174.931
20
-40.7069
42
-0.016
0
SEQEND
0
ARC
8
white
10
-77.6259
20
-25.7219
40
4.2265
50
344.4468
51
348.2034
0
ARC
8
white
10
-76.4696
20
-25.9609
40
3.0458
50
348.1557
51
353.2974
0
ARC
8
white
10
-75.5567
20
-26.0668
40
2.1268
50
353.2618
51
359.7952
0
ARC
8
white
10
-74.7782
20
-26.0606
40
1.3483
50
359.4139
51
12.9584
0
ARC
8
white
10
-74.2304
20
-25.9264
40
0.7844
50
12.3794
51
41.2629
0
ARC
8
white
10
-74.1636
20
-25.8845
40
0.7067
50
42.2774
51
60.7902
0
ARC
8
white
10
-39.0727
20
1.8809
40
16.7287
50
208.9545
51
230.9606
0
LINE
8
white
10
-45.2438
20
-9.9219
11
-42.4656
21
-12.9646
0
LINE
8
white
10
-58.0761
20
-28.0458
11
-63.6323
21
-26.4583
0
ARC
8
white
10
-40.1506
20
-42.8357
40
4.6104
50
75.8815
51
79.2994
0
ARC
8
white
10
-39.9165
20
-41.5833
40
3.3363
50
79.2563
51
83.9215
0
ARC
8
white
10
-39.8115
20
-40.5838
40
2.3313
50
83.8875
51
89.8126
0
ARC
8
white
10
-39.8176
20
-39.7212
40
1.4688
50
89.4657
51
101.5723
0
ARC
8
white
10
-39.9524
20
-39.0971
40
0.8303
50
101.0972
51
124.1329
0
ARC
8
white
10
-40.053
20
-38.9316
40
0.637
50
124.9972
51
151.6522
0
ENDSEC
0
EOF